<?xml version="1.0" encoding="utf-8"?>
<!-- Generator: Adobe Illustrator 26.3.1, SVG Export Plug-In . SVG Version: 6.00 Build 0)  -->
<svg version="1.1" id="Layer_1" xmlns="http://www.w3.org/2000/svg" xmlns:xlink="http://www.w3.org/1999/xlink" x="0px" y="0px"
	 viewBox="0 0 500 500" style="enable-background:new 0 0 500 500;" xml:space="preserve">
<style type="text/css">
	.st0{fill:#AE1515;}
	.st1{fill:#F2F2F2;}
</style>
<path class="st0" d="M447.4,500H52.6C23.5,500,0,476.5,0,447.4V52.6C0,23.5,23.5,0,52.6,0h394.8C476.5,0,500,23.5,500,52.6v394.8
	C500,476.5,476.5,500,447.4,500z"/>
<g>
	<path class="st1" d="M348.4,109.8l-33.6,33.6c-4.5,4.5-11.4,5.8-17.2,3.1c-41.9-19.1-93-11.4-127.5,23.1
		c-35.2,35.2-42.5,87.7-21.9,130.1c4.6,9.5,17.2,11.7,24.7,4.2l25.5-25.5c2.9-2.9,6.8-4.5,10.8-4.5h12c4.1,0,8-1.6,10.8-4.5
		L370,131.4c2.9-2.9,4.5-6.8,4.5-10.8v0C374.5,107,358,100.1,348.4,109.8z"/>
	<path class="st1" d="M328.5,195.4l-90.1,90.1c-2.8,2.8-6.6,4.3-10.5,4.3h-12.4c-3.9,0-7.7,1.6-10.5,4.3l-75.2,75.2
		c-2.8,2.8-4.3,6.6-4.3,10.5v0c0,13.2,15.9,19.8,25.3,10.5l34.8-34.5c4.4-4.4,11.1-5.6,16.7-2.9c42.1,19.7,93.9,12.2,128.7-22.6
		c35.5-35.5,42.6-88.6,21.3-131.2C347.7,190.2,335.6,188.3,328.5,195.4z"/>
</g>
</svg>
